<?xml version="1.0"?>
<svg xmlns="http://www.w3.org/2000/svg" xmlns:xlink="http://www.w3.org/1999/xlink" xmlns:svgjs="http://svgjs.com/svgjs" version="1.1" width="512" height="512" x="0" y="0" viewBox="0 0 510 510" style="enable-background:new 0 0 512 512" xml:space="preserve" class=""><rect width="510" height="510" rx="20" ry="20" fill="#ede3af" shape="rounded"/><g transform="matrix(0.8900000000000001,0,0,0.8900000000000001,28.049999999999955,28.050066299438583)"><g xmlns="http://www.w3.org/2000/svg"><path d="m0 195.004c0 82.71 67.289 150 150 150l10-142-10-158c-82.711 0-150 67.289-150 150z" fill="#fdd82e" data-original="#fdd82e" class=""/><path d="m150 45.004v300c20.854 0 41.206-4.268 60-12.48l.961-.486 88.076-154.078c-8.488-74.716-72.089-132.956-149.037-132.956z" fill="#fbbd00" data-original="#fbbd00" class=""/><path d="m262.548 476.93c-81.494 14.695-161.718-23.609-202.447-93.037l20.997 7.378 9.945-28.303-70.07-24.623-20.452 75.549 28.958 7.84 5.719-21.126c49.413 82.412 143.47 121.933 232.674 105.846z" fill="#7ce2f8" data-original="#7ce2f8" class=""/><path d="m480.522 88.275-5.719 21.125c-49.062-81.826-142.8-122.057-232.675-105.845l5.324 29.523c81.489-14.693 161.716 23.607 202.446 93.036l-20.996-7.378-9.945 28.304 70.07 24.622 20.451-75.549z" fill="#47c8e4" data-original="#47c8e4" class=""/><path d="m30 195.004c0 66.274 53.726 120 120 120l10-113.333-10-126.667c-66.274 0-120 53.725-120 120z" fill="#fbbd00" data-original="#fbbd00" class=""/><path d="m150 75.004v240c22.236 0 43.061-6.049 60.917-16.59l59.083-103.41c0-66.275-53.726-120-120-120z" fill="#fd8f01" data-original="#fd8f01" class=""/><path d="m115.606 124.397-21.212 21.213 40.606 40.607v23.787h-30v30h30v30h15l10-70-10-41.214z" fill="#fdf3f3" data-original="#fdf3f3" class=""/><path d="m165 186.217 40.606-40.607-21.212-21.213-34.394 34.393v111.214h15v-30h30v-30h-30z" fill="#ebe4f0" data-original="#ebe4f0" class=""/><g><g><path d="m210 315.004c0 82.71 67.29 150 150 150l20-157-20-143c-82.71 0-150 67.289-150 150z" fill="#fdd82e" data-original="#fdd82e" class=""/><path d="m360 165.004v300c82.71 0 150-67.29 150-150 0-82.711-67.29-150-150-150z" fill="#fbbd00" data-original="#fbbd00" class=""/><path d="m345 285.004c0 8.272 6.728 15 15 15l10-15-10-15c-8.272 0-15 6.728-15 15z" fill="#fbbd00" data-original="#fbbd00" class=""/><path d="m375 195.939-15 74.064v30l15 134.065c59.114-7.404 105-57.976 105-119.065s-45.886-111.659-105-119.064z" fill="#fd8f01" data-original="#fd8f01" class=""/><path d="m345 195.939c-59.114 7.404-105 57.975-105 119.064s45.886 111.66 105 119.065v-44.065l15-30 10-16.333-10-13.667v-30l-10-13.5 10-16.5z" fill="#fbbd00" data-original="#fbbd00" class=""/><path d="m375 345.004c0-8.271-6.728-15-15-15v30c8.272 0 15-6.729 15-15z" fill="#fd8f01" data-original="#fd8f01" class=""/><path d="m315 360.004v30h30v44.065c4.915.615 9.921.935 15 .935l10-45.5-10-29.5z" fill="#fdf3f3" data-original="#fdf3f3" class=""/><path d="m345 285.004c0-8.271 6.728-15 15-15l10-26.5-10-48.5c-5.079 0-10.085.32-15 .936v46.645c-17.459 6.191-30 22.865-30 42.42 0 24.812 20.186 45 45 45l10-13-10-17c-8.272-.001-15-6.73-15-15.001z" fill="#fdf3f3" data-original="#fdf3f3" class=""/><g fill="#ebe4f0"><path d="m375 345.004c0 8.272-6.728 15-15 15v75c5.079 0 10.085-.32 15-.935v-46.645c17.459-6.192 30-22.865 30-42.42 0-24.812-20.186-45-45-45v30c8.272 0 15 6.728 15 15z" fill="#ebe4f0" data-original="#ebe4f0" class=""/><path d="m405 270.004v-30h-30v-44.064c-4.915-.615-9.921-.936-15-.936v75z" fill="#ebe4f0" data-original="#ebe4f0" class=""/></g></g></g></g></g></svg>
