<?xml version="1.0"?>
<svg xmlns="http://www.w3.org/2000/svg" xmlns:xlink="http://www.w3.org/1999/xlink" xmlns:svgjs="http://svgjs.com/svgjs" version="1.1" width="512" height="512" x="0" y="0" viewBox="0 0 512 512" style="enable-background:new 0 0 512 512" xml:space="preserve" class=""><rect width="512" height="512" rx="20" ry="20" fill="#fbc2c2" shape="rounded"/><g transform="matrix(0.8600000000000001,0,0,0.8599999999999999,35.839999999999975,25.840000000000032)"><g xmlns="http://www.w3.org/2000/svg"><path d="m54.789 166 21.211 21.211 15-15v84.789h30v-84.789l15 15 21.211-21.211-51.211-51.211z" fill="#a97000" data-original="#ffd480" class=""/><path d="m457.211 166-51.211-52.211-51.211 52.211 21.211 21.211 15-15v84.789h30v-84.789l15 15z" fill="#d59e34" data-original="#fabe2c" class=""/><path d="m256 0-75 90h45v167h30 30v-167h45z" fill="#a97000" data-original="#ffd480" class=""/><path d="m286 90h45l-75-90v257h30z" fill="#d59e34" data-original="#fabe2c" class=""/><g><path d="m256 242h-225v270h225 225v-270z" fill="#97de3d" data-original="#97de3d" class=""/><path d="m256 242h225v270h-225z" fill="#59c36a" data-original="#59c36a" class=""/><path d="m406 332c-8.276 0-15-6.724-15-15v-15h-135-135v15c0 8.276-6.724 15-15 15h-15v90h15c8.276 0 15 6.724 15 15v15h135 135v-15c0-8.276 6.724-15 15-15h15v-90z" fill="#59c36a" data-original="#59c36a" class=""/><path d="m391 437c0-8.276 6.724-15 15-15h15v-90h-15c-8.276 0-15-6.724-15-15v-15h-135v150h135z" fill="#00a66c" data-original="#00a66c" class=""/><circle cx="256" cy="377" fill="#97de3d" r="75" data-original="#97de3d" class=""/><path d="m331 377c0-41.422-33.578-75-75-75v150c41.422 0 75-33.58 75-75z" fill="#59c36a" data-original="#59c36a" class=""/><path d="m256 362h-15v30h15 15v-30z" fill="#59c36a" data-original="#59c36a" class=""/><path d="m256 362h15v30h-15z" fill="#00a66c" data-original="#00a66c" class=""/></g></g></g></svg>
