<?xml version="1.0"?>
<svg xmlns="http://www.w3.org/2000/svg" xmlns:xlink="http://www.w3.org/1999/xlink" xmlns:svgjs="http://svgjs.com/svgjs" version="1.1" width="512" height="512" x="0" y="0" viewBox="0 0 60 60" style="enable-background:new 0 0 512 512" xml:space="preserve"><circle r="30" cx="30" cy="30" fill="#5d61d8" shape="circle"/><g transform="matrix(0.8500000000000001,0,0,0.8500000000000001,4.500001144409193,-0.5000237720028551)"><path xmlns="http://www.w3.org/2000/svg" d="m31 41h1.04a10.912 10.912 0 0 1 5.98 1.77 10.922 10.922 0 0 1 4.98 9.163v6.157a.912.912 0 0 1 -.91.91h-40.18a.912.912 0 0 1 -.91-.91v-6.13a10.96 10.96 0 0 1 10.96-10.96z" fill="#385a74" data-original="#385a74"/><path xmlns="http://www.w3.org/2000/svg" d="m31 41s.4 15.261-5 18h-8c-5.4-1.826-5-18-5-18z" fill="#ffffff" data-original="#ffffff"/><path xmlns="http://www.w3.org/2000/svg" d="m27 34v8h-10v-7.975z" fill="#e2b793" data-original="#e2b793"/><path xmlns="http://www.w3.org/2000/svg" d="m37 12.87v5.13l-1 1h-28l-1-1v-4.22a12.958 12.958 0 0 1 13.13-12.78h9.93a1.247 1.247 0 0 1 1.1 1.88l-.78 1.12-1.38 2a8.85 8.85 0 0 1 5.55 1.92 6.348 6.348 0 0 1 2.45 4.95z" fill="#8e705e" data-original="#8e705e"/><path xmlns="http://www.w3.org/2000/svg" d="m22 42a5.043 5.043 0 0 0 -4.5 3.87s-4.5-1.22-4.5-4.87c.9-1.83 4-2 4-2s.5 2.09 5 3z" fill="#d9dde3" data-original="#d9dde3"/><path xmlns="http://www.w3.org/2000/svg" d="m31 41c0 3.65-4.5 4.87-4.5 4.87a5.043 5.043 0 0 0 -4.5-3.87c4.5-.91 5-3 5-3s3.1.17 4 2z" fill="#d9dde3" data-original="#d9dde3"/><path xmlns="http://www.w3.org/2000/svg" d="m25.99 44.56-1.99 2.44h-4l-1.99-2.44a5.2 5.2 0 0 1 3.99-2.56 5.2 5.2 0 0 1 3.99 2.56z" fill="#ec5e69" data-original="#ec5e69"/><path xmlns="http://www.w3.org/2000/svg" d="m26 59-2-12h-4l-2 12z" fill="#d94c57" data-original="#d94c57"/><path xmlns="http://www.w3.org/2000/svg" d="m37 18v.48c0 2.25 0 3.55-.88 5.31a3.1 3.1 0 0 1 -2.04 1.66.9.9 0 0 0 -.63.82 11.474 11.474 0 0 1 -22.9 0 .9.9 0 0 0 -.63-.82 3.1 3.1 0 0 1 -2.04-1.66c-.88-1.76-.88-3.06-.88-5.31v-.48a2.006 2.006 0 0 1 2-2 2.015 2.015 0 0 1 2 2v-1.07a1.823 1.823 0 0 1 1.65-1.81c2.19-.21 5.77-.45 8.16-2.64a1.85 1.85 0 0 1 2.47-.02c1.38 1.21 3.71 2.35 8 2.69a1.84 1.84 0 0 1 1.72 1.81v1.04a2.006 2.006 0 0 1 2-2 2.015 2.015 0 0 1 2 2z" fill="#eec7a4" data-original="#eec7a4"/><path xmlns="http://www.w3.org/2000/svg" d="m39 43h16v13h-16z" fill="#9fa5ad" data-original="#9fa5ad"/><g xmlns="http://www.w3.org/2000/svg" fill="#b2b7c1"><path d="m37 43h4v13h-4z" fill="#b2b7c1" data-original="#b2b7c1"/><path d="m45 43h4v13h-4z" fill="#b2b7c1" data-original="#b2b7c1"/><path d="m53 43h4v13h-4z" fill="#b2b7c1" data-original="#b2b7c1"/></g><path xmlns="http://www.w3.org/2000/svg" d="m36 40 9.926-6.67a1.913 1.913 0 0 1 2.148 0l9.926 6.67-1 1h-20z" fill="#bdc2cc" data-original="#bdc2cc"/><path xmlns="http://www.w3.org/2000/svg" d="m37 55h20a2 2 0 0 1 2 2v2a0 0 0 0 1 0 0h-24a0 0 0 0 1 0 0v-2a2 2 0 0 1 2-2z" fill="#cfd2da" data-original="#cfd2da"/><path xmlns="http://www.w3.org/2000/svg" d="m36 40h22a0 0 0 0 1 0 0v3a1 1 0 0 1 -1 1h-20a1 1 0 0 1 -1-1v-3a0 0 0 0 1 0 0z" fill="#cfd2da" data-original="#cfd2da"/><path xmlns="http://www.w3.org/2000/svg" d="m58 54.184v-9.462a1.993 1.993 0 0 0 1-1.722v-3a.982.982 0 0 0 -.453-.815l.011-.015-9.926-6.67a2.916 2.916 0 0 0 -3.264 0l-9.926 6.67.011.015a.982.982 0 0 0 -.453.815v.381a11.911 11.911 0 0 0 -2.96-.381h-.5a5.8 5.8 0 0 0 -3.54-1.877v-1.676a12.441 12.441 0 0 0 6.441-10.054 4.161 4.161 0 0 0 2.573-2.159c.986-1.97.986-3.475.986-5.753v-5.612c0-3.8-3.1-6.981-7.2-7.712l1.208-1.757a2.193 2.193 0 0 0 .048-2.243 2.28 2.28 0 0 0 -1.992-1.157h-9.939a14.069 14.069 0 0 0 -13.988 11.858 1 1 0 0 0 1.98.284 12.059 12.059 0 0 1 12.008-10.142h9.939a.267.267 0 0 1 .246.136c.085.148.02.178.023.174l-1.858 2.69h-1.475a1 1 0 0 0 0 2h2c3.366 0 7 2.244 7 5.869v2.315a2.862 2.862 0 0 0 -2.479.222 2.876 2.876 0 0 0 -2.164-1.249c-3.378-.27-5.873-1.094-7.413-2.445a2.85 2.85 0 0 0 -3.814.034c-2.009 1.844-5.143 2.147-7.216 2.347l-.357.035a2.829 2.829 0 0 0 -2.1 1.267 2.969 2.969 0 0 0 -1.457-.395 3 3 0 0 0 -3 3c0 .437.027 4.319.989 6.239a4.151 4.151 0 0 0 2.57 2.154 12.439 12.439 0 0 0 6.441 10.069v1.661a5.8 5.8 0 0 0 -3.542 1.877h-.5a11.973 11.973 0 0 0 -11.958 11.96v6.13a1.911 1.911 0 0 0 1.91 1.91h57.09a1 1 0 0 0 1-1v-2a3 3 0 0 0 -2-2.816zm-8-.184v-9h2v9zm-8 0v-9h2v9zm-5-13h20v2h-20zm1 4h2v9h-2zm8 0h2v9h-2zm8 0h2v9h-2zm-7.517-10.84a.909.909 0 0 1 1.034 0l7.2 4.84h-15.436zm-11.483 8.297v.543a1.993 1.993 0 0 0 1 1.722v9.462a3 3 0 0 0 -2 2.816v1h-5.419c3.128-4.24 3.43-12.865 3.43-16h.029a9.879 9.879 0 0 1 2.96.457zm-13 .761a3.835 3.835 0 0 1 2.737 1.291l-1.212 1.491h-3.05l-1.212-1.485a3.94 3.94 0 0 1 2.737-1.297zm3.057 4.064.653-.8a.99.99 0 0 0 1.047.353 9.309 9.309 0 0 0 3.143-1.635c-.269 4.193-1.106 9.551-3.2 11.954zm-7.822-.448a1.007 1.007 0 0 0 .261.035.981.981 0 0 0 .786-.388l.653.8-1.672 10.058c-1.971-2.006-2.909-7.367-3.184-12.158a9.3 9.3 0 0 0 3.16 1.653zm3.612 1.166h2.306l1.667 10h-5.64zm9.143-6.746c-.145 1.8-1.816 2.836-2.878 3.317a5.45 5.45 0 0 0 -1.969-2.352 5.863 5.863 0 0 0 2.46-2.133 3.97 3.97 0 0 1 2.387 1.168zm-18.44-15.054a1.907 1.907 0 0 0 -1.379-1.709 2.123 2.123 0 0 1 -1.4-1.147c-.63-1.272-.771-4.288-.771-5.344a1 1 0 0 1 2 0v1a1 1 0 0 0 2 0v-2.072a.82.82 0 0 1 .753-.81l.353-.034c2.339-.227 5.873-.568 8.375-2.864a.864.864 0 0 1 1.143-.005c1.9 1.665 4.7 2.626 8.572 2.936a.838.838 0 0 1 .8.812v2.037a1 1 0 0 0 2 0v-1a1 1 0 0 1 2 0v.481c0 2.2 0 3.31-.772 4.854a2.133 2.133 0 0 1 -1.412 1.155 1.909 1.909 0 0 0 -1.367 1.716 10.471 10.471 0 0 1 -20.9-.01zm10.45 11.8a12.38 12.38 0 0 0 4-.673v1.508c-.147.334-.929 1.682-4 2.356-3.127-.686-3.877-2.067-4-2.348v-1.509a12.481 12.481 0 0 0 4 .666zm-5.6 2.086a5.863 5.863 0 0 0 2.46 2.133 5.45 5.45 0 0 0 -1.969 2.352c-1.063-.482-2.733-1.518-2.878-3.317a3.961 3.961 0 0 1 2.387-1.168zm-14.4 11.874a9.971 9.971 0 0 1 9.96-9.96h.029c0 3.169.276 11.909 3.24 16h-13.229zm56 6.04h-22v-1a1 1 0 0 1 1-1h20a1 1 0 0 1 1 1z" fill="#373737" data-original="#373737"/></g></svg>
