<?xml version="1.0" encoding="UTF-8"?>
<svg xmlns="http://www.w3.org/2000/svg" xmlns:xlink="http://www.w3.org/1999/xlink" xmlns:svgjs="http://svgjs.com/svgjs" version="1.1" width="512" height="512" x="0" y="0" viewBox="0 0 512 512" style="enable-background:new 0 0 512 512" xml:space="preserve" class="">
  <circle r="256" cx="256" cy="256" fill="#5d61d8" shape="circle"/>
  <g transform="matrix(0.7599999999999999,0,0,0.7599999999999999,101.43998901367195,61.440001831054786)">
    <g xmlns="http://www.w3.org/2000/svg">
      <path d="m420.319 235.043-75.803 75.803-37.449-37.449-21.213 21.212 58.662 58.662 97.016-97.015z" fill="#000000" data-original="#000000" class=""/>
      <path d="m115.088 8.432-106.569 107.068h106.569z" fill="#000000" data-original="#000000" class=""/>
      <path d="m511.999 285.62c0-80.504-65.495-145.999-146-145.999s-146 65.495-146 145.999c0 80.505 65.495 146.001 146 146.001s146-65.496 146-146.001zm-268.572 8.989 63.64-63.639 37.448 37.449 75.804-75.803 63.639 63.639-139.442 139.443z" fill="#000000" data-original="#000000" class=""/>
      <path d="m365.999 461.621c-37.348 0-72.009-11.703-100.529-31.621h-200.429v-30h167.305c-9.123-10.645-17-22.387-23.401-35h-143.904v-30h132.019c-3.292-11.246-5.492-22.952-6.471-35l-125.549-.001v-30l125.66.001c1.065-12.054 3.349-23.761 6.73-35h-132.389v-30l144.539.001c6.537-12.633 14.56-24.376 23.837-35h-49.748v-30l83.59.001c28.174-19.165 62.171-30.38 98.74-30.38 11.185 0 22.125 1.061 32.736 3.065v-112.687h-253.647v145.5h-145.087v366.5h398.733v-53.444c-10.61 2.004-21.551 3.065-32.735 3.065zm-182.331-386.62 150.028-.001v30l-150.027.001v-30z" fill="#000000" data-original="#000000" class=""/>
    </g>
  </g>
</svg>
