<?xml version="1.0"?>
<svg xmlns="http://www.w3.org/2000/svg" xmlns:xlink="http://www.w3.org/1999/xlink" xmlns:svgjs="http://svgjs.com/svgjs" version="1.1" width="512" height="512" x="0" y="0" viewBox="0 0 64 64" style="enable-background:new 0 0 512 512" xml:space="preserve" class=""><circle r="32" cx="32" cy="32" fill="#b7e7f6" shape="circle" transform="matrix(1,0,0,1,0,0)"/><g transform="matrix(0.86,0,0,0.86,4.48,4.48)"><circle xmlns="http://www.w3.org/2000/svg" cx="32" cy="32" fill="#e0e0e0" r="25" data-original="#e0e0e0"/><path xmlns="http://www.w3.org/2000/svg" d="m32 7a25 25 0 0 1 0 50" fill="#cfd2d3" data-original="#cfd2d3"/><circle xmlns="http://www.w3.org/2000/svg" cx="32" cy="32" fill="#fac240" r="10" data-original="#fac240"/><path xmlns="http://www.w3.org/2000/svg" d="m22 32h10v10a10 10 0 0 1 -10-10z" fill="#e5820c" data-original="#e5820c"/><path xmlns="http://www.w3.org/2000/svg" d="m42 32h-10v-10a10 10 0 0 1 10 10z" fill="#e5820c" data-original="#e5820c"/><circle xmlns="http://www.w3.org/2000/svg" cx="50" cy="14" fill="#6090bf" r="9" data-original="#6090bf"/><circle xmlns="http://www.w3.org/2000/svg" cx="14" cy="50" fill="#f95f5f" r="9" data-original="#f95f5f"/><path xmlns="http://www.w3.org/2000/svg" d="m50 9-3 4h6z" fill="#f43b3b" data-original="#f43b3b" class=""/><path xmlns="http://www.w3.org/2000/svg" d="m14 55 3-4h-6z" fill="#71c967" data-original="#71c967"/><path xmlns="http://www.w3.org/2000/svg" d="m8.83 38.27a24 24 0 0 1 29.44-29.44l.52-1.92a25.27 25.27 0 0 0 -6.79-.91 26 26 0 0 0 -26 26 25.27 25.27 0 0 0 .91 6.79z" fill="#000000" data-original="#000000"/><path xmlns="http://www.w3.org/2000/svg" d="m32 56a23.87 23.87 0 0 1 -6.27-.83l-.52 1.92a25.27 25.27 0 0 0 6.79.91 26 26 0 0 0 26-26 25.27 25.27 0 0 0 -.91-6.79l-1.92.52a24 24 0 0 1 -23.17 30.27z" fill="#000000" data-original="#000000"/><path xmlns="http://www.w3.org/2000/svg" d="m21 32a11 11 0 1 0 11-11 11 11 0 0 0 -11 11zm2 0a9 9 0 0 1 8-8.94v2.94h-2a1 1 0 0 0 -1 1v5a1 1 0 0 0 1 1h5v3h-6v2h3v2.94a9 9 0 0 1 -8-8.94zm18 0a9 9 0 0 1 -8 8.94v-2.94h2a1 1 0 0 0 1-1v-5a1 1 0 0 0 -1-1h-5v-3h6v-2h-3v-2.94a9 9 0 0 1 8 8.94z" fill="#000000" data-original="#000000"/><path xmlns="http://www.w3.org/2000/svg" d="m50 24a10 10 0 1 0 -10-10 10 10 0 0 0 10 10zm0-18a8 8 0 1 1 -8 8 8 8 0 0 1 8-8z" fill="#000000" data-original="#000000"/><path xmlns="http://www.w3.org/2000/svg" d="m14 60a10 10 0 1 0 -10-10 10 10 0 0 0 10 10zm0-18a8 8 0 1 1 -8 8 8 8 0 0 1 8-8z" fill="#000000" data-original="#000000"/><path xmlns="http://www.w3.org/2000/svg" d="m47 14h2v2h2v-2h2a1 1 0 0 0 .89-.55 1 1 0 0 0 -.09-1l-3-4a1 1 0 0 0 -1.6 0l-3 4a1 1 0 0 0 -.09 1 1 1 0 0 0 .89.55zm3-3.33 1 1.33h-2z" fill="#000000" data-original="#000000"/><path xmlns="http://www.w3.org/2000/svg" d="m13.2 55.6a1 1 0 0 0 1.6 0l3-4a1 1 0 0 0 .09-1.05 1 1 0 0 0 -.89-.55h-2v-2h-2v2h-2a1 1 0 0 0 -.89.55 1 1 0 0 0 .09 1.05zm1.8-3.6-1 1.33-1-1.33z" fill="#000000" data-original="#000000"/><path xmlns="http://www.w3.org/2000/svg" d="m49 18h2v2h-2z" fill="#000000" data-original="#000000"/><path xmlns="http://www.w3.org/2000/svg" d="m13 44h2v2h-2z" fill="#000000" data-original="#000000"/></g></svg>
