<?xml version="1.0" encoding="UTF-8"?>
<svg xmlns="http://www.w3.org/2000/svg" xmlns:xlink="http://www.w3.org/1999/xlink" xmlns:svgjs="http://svgjs.com/svgjs" version="1.1" width="512" height="512" x="0" y="0" viewBox="0 0 512 512" style="enable-background:new 0 0 512 512" xml:space="preserve" class="">
  <circle r="256" cx="256" cy="256" fill="#5d61d8" shape="circle"/>
  <g transform="matrix(0.7,0,0,0.7,76.80000000000001,61.80000000000001)">
<path xmlns="http://www.w3.org/2000/svg" style="" d="M478.4,153.401c-2.401-2.701-5.7-4.501-9.3-5.101l-44.101-5.999L380.9,136H45  c-12.299,0-23.699,5.099-31.8,13.2S0,168.701,0,181v270c0,12.299,5.099,23.699,13.2,31.8S32.701,496,45,496h392  c12.299,0,23.699-5.099,31.8-13.2S482,463.299,482,451V163.299C482,159.401,480.5,156.099,478.4,153.401z" fill="#e5e5e5" data-original="#e5e5e5" class=""/>
<path xmlns="http://www.w3.org/2000/svg" style="" d="M482,163.299V451c0,12.299-5.099,23.699-13.2,31.8S449.299,496,437,496H242V136h138.9l44.099,6.301  L469.1,148.3c3.6,0.601,6.899,2.401,9.3,5.101C480.5,156.099,482,159.401,482,163.299z" fill="#c8c6cd" data-original="#c8c6cd" class=""/>
<g xmlns="http://www.w3.org/2000/svg">
	<path style="" d="M165,301c0,24.901-20.099,45-45,45s-45-20.099-45-45s20.099-45,45-45S165,276.099,165,301z" fill="#21aaf7" data-original="#21aaf7" class=""/>
	<path style="" d="M180,406v15c0,8.401-6.599,15-15,15H75c-8.401,0-15-6.599-15-15v-11.7   c0-29.7,20.4-57.599,49.799-62.399C113.401,346.3,116.7,346,120,346C152.999,346,180,373.001,180,406z" fill="#21aaf7" data-original="#21aaf7" class=""/>
</g>
<g xmlns="http://www.w3.org/2000/svg">
	<circle style="" cx="347" cy="301" r="15" fill="#8b8892" data-original="#8b8892" class=""/>
	<circle style="" cx="407" cy="301" r="15" fill="#8b8892" data-original="#8b8892" class=""/>
	<circle style="" cx="287" cy="301" r="15" fill="#8b8892" data-original="#8b8892" class=""/>
	<path style="" d="M407,376H287c-8.291,0-15-6.709-15-15s6.709-15,15-15h120c8.291,0,15,6.709,15,15   S415.291,376,407,376z" fill="#8b8892" data-original="#8b8892" class=""/>
	<path style="" d="M422,421c0,8.291-6.709,15-15,15H287c-8.291,0-15-6.709-15-15s6.709-15,15-15h120   C415.291,406,422,412.709,422,421z" fill="#8b8892" data-original="#8b8892" class=""/>
</g>
<path xmlns="http://www.w3.org/2000/svg" style="" d="M392,16c-66.301,0-120,53.699-120,120s53.699,120,120,120s120-53.699,120-120S458.301,16,392,16z" fill="#32d736" data-original="#32d736" class=""/>
<path xmlns="http://www.w3.org/2000/svg" style="" d="M512,136c0,66.301-53.699,120-120,120V16C458.301,16,512,69.699,512,136z" fill="#10bb67" data-original="#10bb67" class=""/>
<g xmlns="http://www.w3.org/2000/svg">
	<path style="" d="M165,301c0,24.901-20.099,45-45,45v-90C144.901,256,165,276.099,165,301z" fill="#1689fc" data-original="#1689fc" class=""/>
	<path style="" d="M180,406v15c0,8.401-6.599,15-15,15h-45v-90C152.999,346,180,373.001,180,406z" fill="#1689fc" data-original="#1689fc" class=""/>
</g>
<path xmlns="http://www.w3.org/2000/svg" style="" d="M447.499,116.499L392,172l-4.501,4.499C384.8,179.5,380.9,181,377,181s-7.8-1.5-10.499-4.501l-30-30  c-6-5.7-6-15.298,0-20.999c5.7-6,15.298-6,20.999,0l19.5,19.199l15-15L426.501,95.5c5.7-6,15.298-6,20.999,0  C453.5,101.201,453.5,110.799,447.499,116.499z" fill="#b7e0f6" data-original="#b7e0f6" class=""/>
<path xmlns="http://www.w3.org/2000/svg" style="" d="M447.499,116.499L392,172v-42.301L426.501,95.5c5.7-6,15.298-6,20.999,0  C453.5,101.201,453.5,110.799,447.499,116.499z" fill="#a4d9f5" data-original="#a4d9f5"/>
<g xmlns="http://www.w3.org/2000/svg">
</g>
<g xmlns="http://www.w3.org/2000/svg">
</g>
<g xmlns="http://www.w3.org/2000/svg">
</g>
<g xmlns="http://www.w3.org/2000/svg">
</g>
<g xmlns="http://www.w3.org/2000/svg">
</g>
<g xmlns="http://www.w3.org/2000/svg">
</g>
<g xmlns="http://www.w3.org/2000/svg">
</g>
<g xmlns="http://www.w3.org/2000/svg">
</g>
<g xmlns="http://www.w3.org/2000/svg">
</g>
<g xmlns="http://www.w3.org/2000/svg">
</g>
<g xmlns="http://www.w3.org/2000/svg">
</g>
<g xmlns="http://www.w3.org/2000/svg">
</g>
<g xmlns="http://www.w3.org/2000/svg">
</g>
<g xmlns="http://www.w3.org/2000/svg">
</g>
<g xmlns="http://www.w3.org/2000/svg">
</g>
</g>
</svg>
