<?xml version="1.0" encoding="UTF-8"?>
<svg xmlns="http://www.w3.org/2000/svg" xmlns:xlink="http://www.w3.org/1999/xlink" xmlns:svgjs="http://svgjs.com/svgjs" version="1.1" width="512" height="512" x="0" y="0" viewBox="0 0 56 56" style="enable-background:new 0 0 512 512" xml:space="preserve" class="">
  <circle r="28" cx="28" cy="28" fill="#b7e7f6" shape="circle"/>
  <g transform="matrix(0.7,0,0,0.7,13.301064682006839,8.400010585784912)">
    <g xmlns="http://www.w3.org/2000/svg" id="Page-1" fill="none" fill-rule="evenodd">
      <g id="013---Signing-Loan-Forms" fill="rgb(0,0,0)" fill-rule="nonzero">
        <ellipse id="Oval" cx="13" cy="9.5" rx="2" ry="3.5" fill="#000000" data-original="#000000" class=""/>
        <path id="Shape" d="m22 8.16-.95 2.84h1.9z" fill="#000000" data-original="#000000" class=""/>
        <path id="Shape" d="m37 48v-6.67c-1.5465552.91395-2.9913705 1.9900189-4.31 3.21-.3120081.2985454-.7281834.4635804-1.16.46h-5.53c-.5522847 0-1-.4477153-1-1s.4477153-1 1-1h3.82c.38-2.47.92-8.73-2.28-13.72-.1859597-.285926-.2865573-.6189387-.29-.96-.0005336-.5375463.2558942-1.0429692.69-1.36.27-.2 6.15-4.63 9.06-9.01v-15.95c-.0032948-1.10320187-.8967981-1.9967052-2-2h-33c-1.10320187.0032948-1.9967052.89679813-2 2v46c.0032948 1.1032019.89679813 1.9967052 2 2h33c1.1032019-.0032948 1.9967052-.8967981 2-2zm-9.13-12c0 .5522847-.4477153 1-1 1h-5.87c-.5522847 0-1-.4477153-1-1s.4477153-1 1-1h5.87c.5522847 0 1 .4477153 1 1zm-6.87-6h4.07c.5522847 0 1 .4477153 1 1s-.4477153 1-1 1h-4.07c-.5522847 0-1-.4477153-1-1s.4477153-1 1-1zm-1-4c0-.5522847.4477153-1 1-1h3.88c.5522847 0 1 .4477153 1 1s-.4477153 1-1 1h-3.88c-.5522847 0-1-.4477153-1-1zm10.34-4h-9.34c-.5522847 0-1-.4477153-1-1s.4477153-1 1-1h9.34c.5522847 0 1 .4477153 1 1s-.4477153 1-1 1zm-2.34-17c-.0000338-.45562829.3079278-.85367426.7489661-.96805239s.9036323.08383326 1.1250339.48205239l3.126 5.627v-5.141c0-.55228475.4477153-1 1-1s1 .44771525 1 1v9c.0000059.4556185-.3079671.8536397-.749.968-.0819493.0213806-.1663076.0321354-.251.032-.3630356.000015-.6975647-.1967218-.874-.514l-3.126-5.627v5.141c0 .5522847-.4477153 1-1 1s-1-.4477153-1-1zm-9.95 8.68.23-.69.24-.72 2.53-7.59c.1348836-.41037454.5180268-.6877501.95-.6877501s.8151164.27737556.95.6877501l3 9c.0319869.1037029.0488274.2114823.05.32.0011098.4299159-.2726883.8124279-.68.95-.104042.0304958-.2116143.047304-.32.05-.4299159.0011098-.8124279-.2726883-.95-.68l-.44-1.32h-3.22l-.44 1.32c-.1767311.5246705-.7453295.8067311-1.27.63-.5246705-.1767312-.8067311-.7453295-.63-1.27zm-5.05-9.68c2.24 0 4 2.42 4 5.5.003026.7312977-.101423 1.4590713-.31 2.16-.0684642.2429409-.1553836.4802979-.26.71-.5112822 1.4860383-1.8621906 2.521866-3.43 2.63-1.1516912-.0356102-2.2128-.633418-2.84-1.6-.78587681-1.146285-1.19165842-2.5105507-1.16-3.9 0-3.08 1.76-5.5 4-5.5zm-11 1c0-.55228475.44771525-1 1-1s1 .44771525 1 1v8h3c.55228475 0 1 .4477153 1 1s-.44771525 1-1 1h-4c-.55228475 0-1-.4477153-1-1zm1 15h13c.5522847 0 1 .4477153 1 1s-.4477153 1-1 1h-13c-.55228475 0-1-.4477153-1-1s.44771525-1 1-1zm0 5h13c.5522847 0 1 .4477153 1 1s-.4477153 1-1 1h-13c-.55228475 0-1-.4477153-1-1s.44771525-1 1-1zm0 5h13c.5522847 0 1 .4477153 1 1s-.4477153 1-1 1h-13c-.55228475 0-1-.4477153-1-1s.44771525-1 1-1zm-1 6c0-.5522847.44771525-1 1-1h13c.5522847 0 1 .4477153 1 1s-.4477153 1-1 1h-13c-.55228475 0-1-.4477153-1-1zm20 9h-3.25c-.8035917.0009681-1.5543417-.4003079-2-1.069l-.416-.626c-.0738482-.1131839-.1998551-.1814251-.335-.1814251s-.2611518.0682412-.335.1814251l-1.151 1.726c-.4397266.6685636-1.1867909 1.070482-1.987 1.069-.1275866-.0000845-.2549725-.0101149-.381-.03-.9283043-.1378499-1.6882698-.8096296-1.939-1.714l-.177-.617c-.04020759-.1631109-.1822581-.2808099-.35-.29-.16787539-.0247496-.33159804.0657072-.4.221-.40370245.8158166-1.23576369 1.3314929-2.146 1.33h-3.133c-.55228475 0-1-.4477153-1-1s.44771525-1 1-1h3.133c.15309328.0008762.29325762-.0857073.361-.223.44166574-.88785 1.38389556-1.4126472 2.37126475-1.320732.98736915.0919153 1.81654025.7816141 2.08673525 1.735732l.176.617c.0411841.1524962.1682545.2664742.3243143.290899.1560597.0244249.3118781-.0452782.3976857-.177899l1.15-1.722c.4446589-.6703485 1.1955819-1.0733501 2-1.0733501s1.5553411.4030016 2 1.0733501l.417.625c.074933.1101458.1997841.1757582.333.175h3.25c.5522847 0 1 .4477153 1 1s-.4477153 1-1 1z" fill="#000000" data-original="#000000" class=""/>
        <path id="Shape" d="m37.06 32.77c.4670315.2498152 1.0151943.3003039 1.52.14.5093353-.1532392.9372192-.5020185 1.19-.97.5101142-.9753685.1399227-2.1796058-.83-2.7-.4649467-.2553975-1.0141006-.3095903-1.52-.15-.5081079.1508619-.9336692.5006877-1.18.97-.2578165.4641944-.3121097 1.0143655-.15 1.52.1532392.5093353.5020185.9372192.97 1.19z" fill="#000000" data-original="#000000" class=""/>
        <path id="Shape" d="m38.97 18.6c-2.76 4.42-8.43 8.89-9.62 9.8 2.0389261 3.5188189 2.9954481 7.560559 2.75 11.62l3.21-6.08c-1.4036296-1.3008485-1.6817406-3.416924-.6619072-5.0362828 1.0198334-1.6193587 3.0483872-2.2827519 4.8279802-1.578883 1.7795931.7038689 2.8055343 2.5753832 2.4417512 4.4542246-.3637831 1.8788413-2.0141218 3.2321717-3.9278242 3.2209412-.309859-.0014477-.6185342-.0383545-.92-.11l-3.24 6.14c3.2464715-2.4978428 7.1624701-3.9737392 11.25-4.24.1-1.5.64-8.7 2.78-13.46l-3.06-1.63z" fill="#000000" data-original="#000000" class=""/>
        <path id="Shape" d="m39 48c0 2.209139-1.790861 4-4 4h-29v2c-.01442401.5239312.18822313 1.0305491.56 1.4.37813659.3879408.89827724.604666 1.44.6h33c1.1032019-.0032948 1.9967052-.8967981 2-2v-14.97c-1.3806576.2565473-2.7242203.6831285-4 1.27z" fill="#000000" data-original="#000000" class=""/>
        <path id="Shape" d="m47.239 3.159-7.299 13.691 5.03 2.68 3.8 2.02 6.336-11.9c.4026251-.75666369.2783433-1.68576065-.309-2.31l-4.337-4.611c-.4416409-.46909275-1.0822173-.69670403-1.7208302-.6114499-.6386129.08525412-1.1970488.47293225-1.5001698 1.0414499z" fill="#000000" data-original="#000000" class=""/>
      </g>
    </g>
  </g>
</svg>
