<?xml version="1.0" encoding="UTF-8"?>
<svg xmlns="http://www.w3.org/2000/svg" xmlns:xlink="http://www.w3.org/1999/xlink" xmlns:svgjs="http://svgjs.com/svgjs" version="1.1" width="512" height="512" x="0" y="0" viewBox="0 0 58 58" style="enable-background:new 0 0 512 512" xml:space="preserve" class="">
  <circle r="29" cx="29" cy="29" fill="#5d61d8" shape="circle"/>
  <g transform="matrix(0.7,0,0,0.6999999999999998,13.633965873718264,8.700013732910161)">
    <g xmlns="http://www.w3.org/2000/svg" id="Page-1" fill="none" fill-rule="evenodd">
      <g id="013---Signing-Loan-Forms" fill-rule="nonzero">
        <path id="Shape" d="m6 52v3c-.00618581.7975297.30789794 1.5641908.87185357 2.1281464.56395563.5639557 1.33061672.8780394 2.12814643.8718536h33c1.6568542 0 3-1.3431458 3-3v-20z" fill="#e4c05c" data-original="#e4c05c" class=""/>
        <path id="Shape" d="m39 45.26v3.74c0 1.6568542-1.3431458 3-3 3h-33c-1.65685425 0-3-1.3431458-3-3v-46c0-1.65685425 1.34314575-3 3-3h33c1.6568542 0 3 1.34314575 3 3z" fill="#f5efca" data-original="#f5efca" class=""/>
        <path id="Shape" d="m8 14h-3v-8c0-.55228475-.44771525-1-1-1s-1 .44771525-1 1v9c0 .5522847.44771525 1 1 1h4c.55228475 0 1-.4477153 1-1s-.44771525-1-1-1z" fill="#a56a43" data-original="#a56a43" class=""/>
        <path id="Shape" d="m14 5c-2.243 0-4 2.416-4 5.5s1.757 5.5 4 5.5 4-2.416 4-5.5-1.757-5.5-4-5.5zm0 9c-.946 0-2-1.437-2-3.5s1.054-3.5 2-3.5 2 1.438 2 3.5-1.054 3.5-2 3.5z" fill="#a56a43" data-original="#a56a43" class=""/>
        <path id="Shape" d="m23.949 5.684c-.1348836-.41037454-.5180268-.6877501-.95-.6877501s-.8151164.27737556-.95.6877501l-3 9c-.174522.5246705.1093295 1.091478.634 1.266s1.091478-.1093295 1.266-.634l.439-1.316h3.224l.439 1.316c.1128959.3394023.398285.5927937.748664.6647241s.712517-.0485281.95-.316c.2374831-.2674719.3142319-.6413218.201336-.9807241zm-1.895 6.316.946-2.838.946 2.838z" fill="#a56a43" data-original="#a56a43" class=""/>
        <path id="Shape" d="m35 5c-.5522847 0-1 .44771525-1 1v5.141l-3.126-5.627c-.2214016-.39821913-.6839956-.59643052-1.1250339-.48205239s-.7489999.5124241-.7489661.96805239v9c0 .5522847.4477153 1 1 1s1-.4477153 1-1v-5.141l3.126 5.627c.1764353.3172782.5109644.514015.874.514.0846924.0001354.1690507-.0106194.251-.032.4410329-.1143603.7490059-.5123815.749-.968v-9c0-.55228475-.4477153-1-1-1z" fill="#a56a43" data-original="#a56a43" class=""/>
        <g fill="#cbb292">
          <path id="Shape" d="m17 23h-13c-.55228475 0-1-.4477153-1-1s.44771525-1 1-1h13c.5522847 0 1 .4477153 1 1s-.4477153 1-1 1z" fill="#cbb292" data-original="#cbb292" class=""/>
          <path id="Shape" d="m17 28h-13c-.55228475 0-1-.4477153-1-1s.44771525-1 1-1h13c.5522847 0 1 .4477153 1 1s-.4477153 1-1 1z" fill="#cbb292" data-original="#cbb292" class=""/>
          <path id="Shape" d="m17 33h-13c-.55228475 0-1-.4477153-1-1s.44771525-1 1-1h13c.5522847 0 1 .4477153 1 1s-.4477153 1-1 1z" fill="#cbb292" data-original="#cbb292" class=""/>
          <path id="Shape" d="m31.34 23h-9.34c-.5522847 0-1-.4477153-1-1s.4477153-1 1-1h9.34c.5522847 0 1 .4477153 1 1s-.4477153 1-1 1z" fill="#cbb292" data-original="#cbb292" class=""/>
          <path id="Shape" d="m25.88 28h-3.88c-.5522847 0-1-.4477153-1-1s.4477153-1 1-1h3.88c.5522847 0 1 .4477153 1 1s-.4477153 1-1 1z" fill="#cbb292" data-original="#cbb292" class=""/>
          <path id="Shape" d="m26.07 33h-4.07c-.5522847 0-1-.4477153-1-1s.4477153-1 1-1h4.07c.5522847 0 1 .4477153 1 1s-.4477153 1-1 1z" fill="#cbb292" data-original="#cbb292" class=""/>
          <path id="Shape" d="m17 38h-13c-.55228475 0-1-.4477153-1-1s.44771525-1 1-1h13c.5522847 0 1 .4477153 1 1s-.4477153 1-1 1z" fill="#cbb292" data-original="#cbb292" class=""/>
          <path id="Shape" d="m27.87 38h-5.87c-.5522847 0-1-.4477153-1-1s.4477153-1 1-1h5.87c.5522847 0 1 .4477153 1 1s-.4477153 1-1 1z" fill="#cbb292" data-original="#cbb292" class=""/>
          <path id="Shape" d="m13.526 47.1c-.1275866-.0000845-.2549725-.0101149-.381-.03-.9283043-.1378499-1.6882698-.8096296-1.939-1.714l-.177-.617c-.0402076-.1631109-.1822581-.2808099-.35-.29-.1678754-.0247496-.331598.0657072-.4.221-.40370245.8158166-1.23576369 1.3314929-2.146 1.33h-3.133c-.55228475 0-1-.4477153-1-1s.44771525-1 1-1h3.133c.15309328.0008762.29325762-.0857073.361-.223.44166574-.88785 1.38389556-1.4126472 2.3712648-1.320732.9873691.0919153 1.8165402.7816141 2.0867352 1.735732l.176.617c.0411841.1524962.1682545.2664742.3243143.290899.1560597.0244249.3118781-.0452782.3976857-.177899l1.15-1.722c.4446589-.6703485 1.1955819-1.0733501 2-1.0733501s1.5553411.4030016 2 1.0733501l.417.625c.074933.1101458.1997841.1757582.333.175h3.25c.5522847 0 1 .4477153 1 1s-.4477153 1-1 1h-3.25c-.8035917.0009681-1.5543417-.4003079-2-1.069l-.416-.626c-.0738482-.1131839-.1998551-.1814251-.335-.1814251s-.2611518.0682412-.335.1814251l-1.151 1.726c-.4397266.6685636-1.1867909 1.070482-1.987 1.069z" fill="#cbb292" data-original="#cbb292" class=""/>
          <path id="Shape" d="m32.53 46h-5.53c-.5522847 0-1-.4477153-1-1s.4477153-1 1-1h5.53c.5522847 0 1 .4477153 1 1s-.4477153 1-1 1z" fill="#cbb292" data-original="#cbb292" class=""/>
        </g>
        <path id="Shape" d="m57.325 10.486-7.145 13.414-6.18-.9-4.41-4.74 8.419-15.8c.3028565-.56904383.8614203-.95722901 1.5003476-1.04269695.6389274-.08546794 1.2798806.14226044 1.7216524.61169695l5.785 6.146c.5878056.62442027.7121097 1.55408609.309 2.311z" fill="#4482c3" data-original="#4482c3" class=""/>
        <path id="Shape" d="m50.18 23.9c-2.31 4.34-3 11.9-3.11 14.2-.0239071.3846701-.3446027.6834002-.73.68-5.4.11-9.99 3.13-12.67 5.45-.23.2-.45.39-.65.58-.2297863.2073856-.5648741.2485845-.8380532.1030383-.2731791-.1455463-.425897-.4466416-.3819468-.7530383.04-.29.09-.59.13-.91.42-3.53.36-8.99-2.55-13.51-.2164837-.3170777-.1460898-.7482404.16-.98 1.85-1.38 7.74-6.16 10.05-10.5z" fill="#f3d55b" data-original="#f3d55b"/>
        <path id="Shape" d="m42 32c0 1.6568542-1.3431458 3-3 3-.1612018-.0017897-.3218901-.0185281-.48-.05-.0073512.0590003-.0242378.1164147-.05.17l-4.8 9.11c-.23.2-.45.39-.65.58-.2297863.2073856-.5648741.2485845-.8380532.1030383-.2731791-.1455463-.425897-.4466416-.3819468-.7530383.04-.29.09-.59.13-.91l4.78-9.07c.0280381-.0499536.0653762-.0940804.11-.13-.9265656-.9800975-1.0851641-2.4580485-.3876485-3.6124258.6975156-1.1543772 2.0796519-1.7013617 3.3782343-1.336946 1.2985823.3644157 2.1943369 1.5506351 2.1894142 2.8993718z" fill="#b19046" data-original="#b19046" class=""/>
      </g>
    </g>
  </g>
</svg>
