<?xml version="1.0" encoding="UTF-8"?>
<svg xmlns="http://www.w3.org/2000/svg" xmlns:xlink="http://www.w3.org/1999/xlink" xmlns:svgjs="http://svgjs.com/svgjs" version="1.1" width="512" height="512" x="0" y="0" viewBox="0 0 512 512" style="enable-background:new 0 0 512 512" xml:space="preserve" class="">
  <circle r="256" cx="256" cy="256" fill="#5d61d8" shape="circle"/>
  <g transform="matrix(0.7,0,0,0.7,76.80000000000001,76.80000000000001)">
    <g xmlns="http://www.w3.org/2000/svg">
      <path d="m158 127h196c24.813 0 45-20.187 45-45v-37c0-24.813-20.187-45-45-45h-196c-24.813 0-45 20.187-45 45v37c0 24.813 20.187 45 45 45z" fill="#000000" data-original="#000000" class=""/>
      <path d="m429 67.298v14.702c0 41.355-33.645 75-75 75h-196c-41.355 0-75-33.645-75-75v-14.702c-15.944 13.812-26 34.188-26 56.702v313c0 41.355 33.645 75 75 75h248c41.355 0 75-33.645 75-75v-313c0-22.514-10.056-42.89-26-56.702zm-240.794 315.884c4.815 6.741 3.254 16.109-3.487 20.925-2.643 1.887-5.689 2.795-8.706 2.795-4.68 0-9.291-2.184-12.219-6.282l-7.794-10.912-7.794 10.912c-2.928 4.098-7.539 6.282-12.219 6.282-3.018 0-6.063-.907-8.706-2.795-6.741-4.815-8.302-14.184-3.487-20.925l13.772-19.281-13.772-19.281c-4.815-6.741-3.254-16.109 3.487-20.925 6.741-4.815 16.109-3.254 20.925 3.487l7.794 10.911 7.794-10.912c4.816-6.741 14.183-8.302 20.925-3.487 6.741 4.815 8.302 14.184 3.487 20.925l-13.772 19.281zm15.308-149.567-40 47.9c-2.868 3.434-7.097 5.385-11.512 5.385-.576 0-1.153-.033-1.733-.1-5.023-.583-9.415-3.659-11.68-8.181l-16-31.934c-3.711-7.406-.715-16.419 6.691-20.13 7.407-3.711 16.419-.715 20.13 6.691l5.747 11.47 25.329-30.332c5.311-6.359 14.77-7.208 21.128-1.899 6.359 5.311 7.209 14.771 1.9 21.13zm172.486 146.546h-88c-8.284 0-15-6.716-15-15s6.716-15 15-15h88c8.284 0 15 6.716 15 15s-6.716 15-15 15zm0-117.211h-88c-8.284 0-15-6.716-15-15s6.716-15 15-15h88c8.284 0 15 6.716 15 15s-6.716 15-15 15z" fill="#000000" data-original="#000000" class=""/>
    </g>
  </g>
</svg>
